<svg width="95" height="42" viewBox="0 0 95 42" fill="none" xmlns="http://www.w3.org/2000/svg">
<path d="M27.1116 29.3282C27.9519 27.5241 28.9731 25.8932 30.1432 24.3336C31.4091 22.6518 32.8238 21.1228 34.4194 19.7366C36.164 18.228 38.0255 16.8621 40.153 15.8938C41.7166 15.1803 43.1846 15.6492 44.4185 16.5665C45.6312 17.4635 46.195 18.7784 45.9397 20.287C45.6418 21.9994 44.9185 23.5895 44.2271 25.1797C43.6101 26.5863 42.8442 27.9216 42.0038 29.2263C40.1636 32.0702 37.9298 34.5675 35.2066 36.6876C33.4408 38.0535 31.5686 39.2664 29.5475 40.245C28.0689 40.9585 26.5904 41.672 24.9309 41.9268C23.6438 42.1307 22.3673 41.8963 21.261 41.3764C18.1443 39.9188 15.4212 37.9006 12.8363 35.6887C10.5493 33.7316 8.51752 31.5707 6.773 29.1855C4.93274 26.6678 3.45415 23.9361 2.25214 21.0515C1.22031 18.5746 0.369328 16.0569 0.039571 13.4067C-0.364648 10.2468 2.37978 7.50492 5.90074 8.07573C8.08139 8.42229 9.8791 9.62507 11.6449 10.7871C13.2086 11.8166 14.6872 12.999 16.1126 14.2221C17.889 15.7409 19.5059 17.3922 20.9951 19.1556C22.9737 21.5 24.5267 24.1196 25.9308 26.8105C26.3563 27.6158 26.5691 28.5332 27.1116 29.3282ZM24.0374 41.5701C26.484 41.7332 28.2498 39.8984 28.4944 37.9923C28.8455 35.2912 27.9519 32.8448 27.0052 30.4189C26.2393 28.4414 25.3139 26.5149 24.2608 24.6394C23.0162 22.4173 21.5376 20.3584 19.8569 18.4523C18.4209 16.8214 16.8146 15.3332 15.1233 13.9265C13.0703 12.2345 10.9322 10.6546 8.5388 9.45179C7.61335 8.98291 6.66663 8.42229 5.54971 8.33056C2.93293 8.09612 0.0182963 10.3692 0.44379 13.3965C1.05012 17.7489 2.784 21.7242 4.93274 25.5466C6.43261 28.2274 8.31542 30.6431 10.4748 32.8856C13.315 35.8212 16.4849 38.3695 20.1122 40.3469C21.3461 41.0298 22.6333 41.7943 24.0374 41.5701ZM40.2061 30.9082C40.8018 30.582 40.855 29.9296 41.2805 29.5627C41.6528 29.2467 41.5784 28.9511 41.3869 28.6045C40.6955 27.3508 39.9402 26.1684 38.802 25.1899C37.0043 23.6507 34.9194 22.8964 32.5792 22.6314C32.3239 22.6008 32.0579 22.5804 31.8665 22.8251C31.4942 23.3143 31.1006 23.7934 30.6751 24.3336C35.1853 24.8331 38.3765 26.9736 40.2061 30.9082ZM33.4621 21.3675C37.0256 21.9892 39.8019 23.6711 41.8017 26.5048C42.0251 26.8207 42.0251 27.4425 42.3974 27.4731C42.9399 27.5139 42.7697 26.8309 43.025 26.5251C43.2697 26.2194 43.6207 25.9238 43.3335 25.4141C41.7911 22.611 39.4934 20.7661 36.2278 20.0729C34.8875 19.7875 34.1109 20.1137 33.4621 21.3675ZM44.0994 24.2623C44.4398 23.6507 44.7483 23.0799 44.8866 22.4173C44.961 22.03 44.8227 21.714 44.61 21.4082C43.4293 19.7162 41.8868 18.4726 39.8551 17.7795C38.334 17.2597 37.5149 17.4533 36.398 18.8498C39.7913 19.5429 42.3336 21.3471 44.0994 24.2623Z" fill="#040404"/>
<path d="M51.5208 27.915C53.5164 27.0469 55.3908 26.4297 57.5077 26.8481C62.2156 27.7686 64.9169 32.2138 63.7151 36.4185C62.5023 40.6441 57.5298 43.0497 53.3621 41.554C49.8339 40.2884 47.9044 37.4644 48.0036 33.8664C48.1249 29.9859 48.4557 26.116 49.1062 22.2774C49.1944 21.7439 49.2606 21.1896 49.2275 20.6457C49.1834 19.9763 49.5252 19.9449 50.0544 20.0391C51.5098 20.311 52.3698 21.5661 52.0831 23.0827C51.9288 23.8777 51.7854 24.6621 51.7413 25.4779C51.6862 26.2519 51.598 27.0259 51.5208 27.915ZM56.0193 39.0019C58.6213 39.2111 60.9587 36.8891 60.9698 34.3475C60.9698 31.7222 58.5441 29.6094 56.0413 29.6408C53.3731 29.6722 51.0798 31.8059 51.0798 34.3266C51.0688 36.7845 53.2959 39.1902 56.0193 39.0019Z" fill="#040404"/>
<path d="M71.6636 41.9904C65.9377 41.9904 62.3616 36.2912 64.7527 31.3018C66.6193 27.4132 71.1077 25.8701 75.2606 27.8864C77.0748 28.7712 77.0538 31.199 76.0786 32.1557C74.3482 33.8428 72.6179 35.5196 70.919 37.2376C70.5519 37.608 69.8808 37.9577 70.1115 38.6058C70.3632 39.2951 71.0868 39.0791 71.6321 39.0791C73.74 39.0996 75.1347 38.0606 75.9737 36.2089C76.2673 35.5608 76.4561 34.7995 77.4314 34.7481C78.501 34.6967 79.1932 35.4991 78.952 36.5278C78.2494 39.6654 74.7467 42.1755 71.6636 41.9904ZM66.9654 34.7378C66.9864 34.851 67.0074 35.1596 67.0912 35.4579C67.2695 36.0752 67.8883 36.2603 68.3287 35.8077C69.8388 34.2954 71.3385 32.7729 72.8486 31.2504C73.0793 31.0138 73.4254 30.8183 73.2261 30.3966C73.0583 30.0365 72.7332 29.9542 72.3767 29.9028C69.5557 29.5324 66.9549 31.6413 66.9654 34.7378Z" fill="#040404"/>
<path d="M80.0345 34.5956C79.835 32.3876 80.7171 30.539 82.2608 29.1114C84.1616 27.345 87.333 26.2872 90.2629 27.5607C91.0925 27.9201 91.9326 28.2282 92.3422 29.0806C92.9618 30.3746 92.7308 31.5043 91.6701 32.5416C89.9899 34.1745 88.3202 35.8075 86.6504 37.4507C86.3249 37.7793 85.8313 38.0669 86.0728 38.6523C86.3039 39.2068 86.8394 39.0323 87.27 39.0733C89.6433 39.3095 91.3551 37.8101 92.1637 35.7459C92.4997 34.8832 93.1088 34.5751 94.0329 34.8318C94.726 35.027 95.1566 35.7767 94.9466 36.5161C94.0854 39.5149 91.2396 41.8462 87.9841 41.99C85.1067 42.1235 82.9014 40.9117 81.2527 38.7652C80.3181 37.5842 79.8665 36.1258 80.0345 34.5956ZM87.5745 29.933C86.2094 29.779 85.1802 30.426 84.3086 31.1654C83.0274 32.2643 82.7229 33.774 82.9749 35.4069C83.0169 35.6534 82.9854 35.9513 83.311 36.0231C83.626 36.095 83.9201 36.0745 84.1826 35.8075C85.7158 34.2875 87.27 32.7778 88.8032 31.2579C89.0132 31.0525 89.3283 30.8471 89.1708 30.4773C89.0132 30.0871 88.6562 29.9638 88.2676 29.9433C88.0261 29.9228 87.7636 29.933 87.5745 29.933Z" fill="#040404"/>
<path d="M41.6076 1.90441C41.1194 1.93446 40.5462 1.97453 39.9625 1.98454C39.4318 1.99456 39.0497 1.79423 39.0073 1.24332C38.9542 0.692417 39.1877 0.381907 39.8139 0.291758C43.1996 -0.199049 46.5216 -0.13895 49.8012 1.00293C53.5902 2.33512 56.6044 4.53874 58.9075 7.68392C60.6481 10.0578 61.5715 12.7022 61.9642 15.5268C61.996 15.7171 62.0066 15.9175 61.996 16.1078C61.9536 16.5585 61.7201 16.9091 61.2318 16.9892C60.7224 17.0694 60.5101 16.6887 60.3934 16.3081C60.0113 15.1562 59.7566 13.9743 59.2684 12.8524C57.9629 9.84748 55.9145 7.33334 53.1762 5.42019C50.6715 3.66731 47.8801 2.3852 44.6855 2.11476C43.6772 2.03462 42.6902 1.91443 41.6076 1.90441Z" fill="#040404"/>
<path d="M41.4912 6.9337C41.0272 6.96421 40.5632 6.97438 40.0992 7.03541C39.3715 7.12695 39.0341 6.67942 39.0024 6.13019C38.9708 5.62164 39.245 5.25548 39.9304 5.16394C42.841 4.79778 45.6566 5.0012 48.3246 6.22173C49.9486 6.96421 51.3617 8.03217 52.5744 9.31372C53.8715 10.6868 54.7679 12.2938 55.4322 14.0229C55.7908 14.9688 55.8751 15.9757 55.9911 16.9725C56.0439 17.4099 55.8646 17.8167 55.369 17.9591C54.81 18.1218 54.4831 17.776 54.3039 17.3285C54.093 16.8098 53.9348 16.2707 53.7766 15.7316C52.7537 12.3345 50.4442 9.93415 47.3228 8.29662C45.5617 7.37105 43.5792 6.83199 41.4912 6.9337Z" fill="#040404"/>
<path d="M42.7197 10.0047C46.7475 9.86676 50.5041 13.3158 50.9632 17.3485C50.9736 17.4652 50.9945 17.582 50.9945 17.6987C50.9945 18.2187 51.0988 18.8236 50.3997 18.9722C49.6797 19.1314 49.4606 18.5795 49.304 18.0277C48.8658 16.4677 48.1249 15.1093 46.8936 14.0268C45.3597 12.6684 43.6693 11.8619 41.6136 11.9256C40.9458 11.9468 40.1423 12.1166 40.0067 11.0978C39.9232 10.4717 40.6327 10.0366 41.6867 10.0047C42.031 9.9941 42.3754 10.0047 42.7197 10.0047Z" fill="#040404"/>
<path d="M24.5058 41.9593C23.11 42.1883 21.8305 41.4076 20.5933 40.7103C16.9875 38.6806 13.8363 36.0889 11.013 33.0912C8.86641 30.8117 6.99475 28.3345 5.50377 25.5971C3.37833 21.6939 1.65471 17.6345 1.0414 13.1901C0.618425 10.0883 3.51579 7.77765 6.11708 8.01704C7.22739 8.12113 8.1685 8.6936 9.08847 9.16198C11.4677 10.3902 13.5931 12.0035 15.634 13.7313C17.3259 15.1677 18.9226 16.6874 20.3396 18.3527C22.0103 20.2991 23.4801 22.4016 24.7173 24.6707C25.7642 26.5859 26.6842 28.5531 27.4455 30.5723C28.3866 33.0496 29.2643 35.5476 28.9259 38.3059C28.6933 40.2419 26.9379 42.1258 24.5058 41.9593Z" fill="#F7DC1D"/>
<path d="M39.7778 31C38.0947 27.2151 35.159 25.1506 31 24.659C31.3914 24.138 31.7535 23.6759 32.096 23.2041C32.2722 22.9681 32.5168 22.9878 32.7517 23.0173C34.9045 23.263 36.8225 24.0004 38.4763 25.4848C39.5332 26.4286 40.2182 27.569 40.8543 28.7782C41.0304 29.1125 41.0989 29.3976 40.7564 29.7023C40.3748 30.0464 40.3258 30.6756 39.7778 31Z" fill="#F7DC1D"/>
<path d="M33 21.4874C33.6505 20.1504 34.4397 19.7918 35.7727 20.107C39.0467 20.8569 41.3502 22.8134 42.8966 25.8025C43.1739 26.346 42.8326 26.6612 42.5873 26.9873C42.3314 27.3242 42.502 28.0416 41.9581 27.9981C41.5742 27.9655 41.5849 27.3133 41.3609 26.9655C39.356 23.9438 36.5726 22.1613 33 21.4874Z" fill="#F7DC1D"/>
<path d="M44.1533 24C42.2865 21.4075 39.5987 19.803 36 19.1866C37.1808 17.9447 38.0468 17.7725 39.6549 18.2348C41.8029 18.8512 43.4336 19.9571 44.6819 21.4618C44.9068 21.7429 45.0642 22.0148 44.9743 22.3593C44.8393 22.9485 44.5132 23.4652 44.1533 24Z" fill="#F7DC1D"/>
</svg>
