<svg width="91" height="31" viewBox="0 0 91 31" fill="none" xmlns="http://www.w3.org/2000/svg">
<path d="M15.96 0.5L11.64 11.03H10.77L6.45 0.5H7.32L11.205 10.1L15.09 0.5H15.96ZM17.7498 3.56V11H17.0148V3.56H17.7498ZM16.7298 1.265C16.7298 1.045 16.7998 0.880001 16.9398 0.77C17.0798 0.660001 17.2298 0.605001 17.3898 0.605001C17.5598 0.605001 17.7148 0.660001 17.8548 0.77C17.9948 0.880001 18.0648 1.045 18.0648 1.265C18.0648 1.485 17.9948 1.65 17.8548 1.76C17.7148 1.87 17.5598 1.925 17.3898 1.925C17.2298 1.925 17.0798 1.87 16.9398 1.76C16.7998 1.65 16.7298 1.485 16.7298 1.265ZM23.4489 11.12C22.9289 11.12 22.4389 11.03 21.9789 10.85C21.5189 10.67 21.1189 10.415 20.7789 10.085C20.4389 9.755 20.1689 9.355 19.9689 8.885C19.7789 8.415 19.6839 7.885 19.6839 7.295C19.6839 6.745 19.7789 6.235 19.9689 5.765C20.1689 5.295 20.4389 4.89 20.7789 4.55C21.1189 4.21 21.5189 3.945 21.9789 3.755C22.4389 3.565 22.9289 3.47 23.4489 3.47C23.9689 3.47 24.4639 3.555 24.9339 3.725C25.4139 3.885 25.8239 4.135 26.1639 4.475C26.5139 4.815 26.7739 5.25 26.9439 5.78C27.1239 6.3 27.1789 6.92 27.1089 7.64H20.4339C20.4739 8.08 20.5789 8.47 20.7489 8.81C20.9289 9.15 21.1539 9.44 21.4239 9.68C21.6939 9.91 22.0039 10.09 22.3539 10.22C22.7039 10.34 23.0689 10.4 23.4489 10.4C23.6889 10.4 23.9389 10.375 24.1989 10.325C24.4589 10.275 24.7039 10.205 24.9339 10.115C25.1739 10.015 25.3939 9.895 25.5939 9.755C25.8039 9.615 25.9789 9.455 26.1189 9.275L26.6439 9.695C26.4639 9.935 26.2489 10.145 25.9989 10.325C25.7589 10.495 25.4989 10.64 25.2189 10.76C24.9389 10.88 24.6489 10.97 24.3489 11.03C24.0489 11.09 23.7489 11.12 23.4489 11.12ZM26.4489 6.995C26.4389 6.075 26.1589 5.37 25.6089 4.88C25.0689 4.39 24.3489 4.145 23.4489 4.145C23.0689 4.145 22.7039 4.21 22.3539 4.34C22.0039 4.46 21.6939 4.645 21.4239 4.895C21.1539 5.135 20.9289 5.435 20.7489 5.795C20.5789 6.145 20.4739 6.545 20.4339 6.995H26.4489ZM30.4111 1.355V3.59H32.9311V4.205H30.4111V8.72C30.4111 8.97 30.4261 9.2 30.4561 9.41C30.4961 9.62 30.5611 9.8 30.6511 9.95C30.7511 10.1 30.8911 10.22 31.0711 10.31C31.2511 10.39 31.4861 10.43 31.7761 10.43C31.9561 10.43 32.1411 10.405 32.3311 10.355C32.5311 10.295 32.7261 10.22 32.9161 10.13L33.1711 10.73C32.9411 10.84 32.7061 10.93 32.4661 11C32.2361 11.07 32.0061 11.105 31.7761 11.105C31.3861 11.105 31.0561 11.05 30.7861 10.94C30.5161 10.83 30.3011 10.67 30.1411 10.46C29.9811 10.25 29.8661 10 29.7961 9.71C29.7261 9.41 29.6911 9.08 29.6911 8.72V4.205H28.1161V3.59H29.6911V1.43L30.4111 1.355ZM35.1957 3.59V4.91C35.4857 4.4 35.8657 4.035 36.3357 3.815C36.8157 3.585 37.3157 3.465 37.8357 3.455C38.3257 3.455 38.7757 3.53 39.1857 3.68C39.6057 3.83 39.9607 4.045 40.2507 4.325C40.5407 4.605 40.7657 4.95 40.9257 5.36C41.0957 5.76 41.1807 6.215 41.1807 6.725V11H40.4457V6.74C40.4457 5.89 40.2057 5.25 39.7257 4.82C39.2557 4.38 38.6157 4.165 37.8057 4.175C37.4257 4.175 37.0757 4.245 36.7557 4.385C36.4357 4.525 36.1607 4.715 35.9307 4.955C35.7007 5.195 35.5207 5.48 35.3907 5.81C35.2707 6.14 35.2107 6.495 35.2107 6.875V11H34.4757V3.59H35.1957ZM50.5488 3.59V11H49.8138V9.425C49.4538 10.005 49.0088 10.435 48.4788 10.715C47.9488 10.985 47.3838 11.12 46.7838 11.12C46.2638 11.12 45.7738 11.03 45.3138 10.85C44.8638 10.66 44.4688 10.395 44.1288 10.055C43.7888 9.715 43.5188 9.315 43.3188 8.855C43.1188 8.385 43.0188 7.865 43.0188 7.295C43.0188 6.725 43.1188 6.21 43.3188 5.75C43.5188 5.28 43.7888 4.88 44.1288 4.55C44.4688 4.22 44.8638 3.965 45.3138 3.785C45.7738 3.595 46.2638 3.5 46.7838 3.5C47.3838 3.5 47.9588 3.64 48.5088 3.92C49.0688 4.2 49.5038 4.63 49.8138 5.21V3.59H50.5488ZM46.7838 4.205C46.3638 4.205 45.9688 4.28 45.5988 4.43C45.2288 4.58 44.9088 4.79 44.6388 5.06C44.3688 5.33 44.1538 5.655 43.9938 6.035C43.8338 6.415 43.7538 6.835 43.7538 7.295C43.7538 7.765 43.8338 8.19 43.9938 8.57C44.1538 8.95 44.3688 9.275 44.6388 9.545C44.9088 9.815 45.2288 10.025 45.5988 10.175C45.9688 10.325 46.3638 10.4 46.7838 10.4C47.4738 10.4 48.0438 10.25 48.4938 9.95C48.9538 9.64 49.2988 9.255 49.5288 8.795C49.7588 8.335 49.8738 7.84 49.8738 7.31C49.8738 6.77 49.7588 6.27 49.5288 5.81C49.2988 5.35 48.9538 4.97 48.4938 4.67C48.0438 4.36 47.4738 4.205 46.7838 4.205ZM63.9567 11V6.56C63.9567 6.2 63.8967 5.875 63.7767 5.585C63.6667 5.285 63.5067 5.03 63.2967 4.82C63.0867 4.6 62.8367 4.43 62.5467 4.31C62.2567 4.19 61.9367 4.13 61.5867 4.13C61.2367 4.13 60.9117 4.195 60.6117 4.325C60.3217 4.445 60.0717 4.615 59.8617 4.835C59.6517 5.055 59.4867 5.315 59.3667 5.615C59.2567 5.915 59.2017 6.245 59.2017 6.605V11H58.4667V6.605C58.4667 6.245 58.4067 5.915 58.2867 5.615C58.1767 5.315 58.0167 5.06 57.8067 4.85C57.5967 4.63 57.3417 4.46 57.0417 4.34C56.7517 4.21 56.4317 4.145 56.0817 4.145C55.7317 4.145 55.4117 4.21 55.1217 4.34C54.8317 4.46 54.5817 4.63 54.3717 4.85C54.1617 5.06 53.9967 5.315 53.8767 5.615C53.7667 5.915 53.7117 6.245 53.7117 6.605V11H52.9767V3.59H53.6667L53.6817 4.82C53.9417 4.33 54.2867 3.98 54.7167 3.77C55.1567 3.55 55.6167 3.44 56.0967 3.44C56.3767 3.44 56.6567 3.475 56.9367 3.545C57.2167 3.605 57.4767 3.71 57.7167 3.86C57.9667 4.01 58.1867 4.2 58.3767 4.43C58.5767 4.66 58.7317 4.94 58.8417 5.27C58.9517 4.97 59.1017 4.705 59.2917 4.475C59.4917 4.245 59.7117 4.055 59.9517 3.905C60.2017 3.745 60.4617 3.63 60.7317 3.56C61.0117 3.48 61.2967 3.44 61.5867 3.44C62.0367 3.44 62.4517 3.515 62.8317 3.665C63.2117 3.815 63.5367 4.03 63.8067 4.31C64.0867 4.58 64.3017 4.91 64.4517 5.3C64.6117 5.68 64.6917 6.1 64.6917 6.56V11H63.9567ZM70.2946 11.12C69.7746 11.12 69.2846 11.03 68.8246 10.85C68.3646 10.67 67.9646 10.415 67.6246 10.085C67.2846 9.755 67.0146 9.355 66.8146 8.885C66.6246 8.415 66.5296 7.885 66.5296 7.295C66.5296 6.745 66.6246 6.235 66.8146 5.765C67.0146 5.295 67.2846 4.89 67.6246 4.55C67.9646 4.21 68.3646 3.945 68.8246 3.755C69.2846 3.565 69.7746 3.47 70.2946 3.47C70.8146 3.47 71.3096 3.555 71.7796 3.725C72.2596 3.885 72.6696 4.135 73.0096 4.475C73.3596 4.815 73.6196 5.25 73.7896 5.78C73.9696 6.3 74.0246 6.92 73.9546 7.64H67.2796C67.3196 8.08 67.4246 8.47 67.5946 8.81C67.7746 9.15 67.9996 9.44 68.2696 9.68C68.5396 9.91 68.8496 10.09 69.1996 10.22C69.5496 10.34 69.9146 10.4 70.2946 10.4C70.5346 10.4 70.7846 10.375 71.0446 10.325C71.3046 10.275 71.5496 10.205 71.7796 10.115C72.0196 10.015 72.2396 9.895 72.4396 9.755C72.6496 9.615 72.8246 9.455 72.9646 9.275L73.4896 9.695C73.3096 9.935 73.0946 10.145 72.8446 10.325C72.6046 10.495 72.3446 10.64 72.0646 10.76C71.7846 10.88 71.4946 10.97 71.1946 11.03C70.8946 11.09 70.5946 11.12 70.2946 11.12ZM73.2946 6.995C73.2846 6.075 73.0046 5.37 72.4546 4.88C71.9146 4.39 71.1946 4.145 70.2946 4.145C69.9146 4.145 69.5496 4.21 69.1996 4.34C68.8496 4.46 68.5396 4.645 68.2696 4.895C67.9996 5.135 67.7746 5.435 67.5946 5.795C67.4246 6.145 67.3196 6.545 67.2796 6.995H73.2946ZM80.7183 4.94C80.3383 4.61 79.9633 4.4 79.5933 4.31C79.2233 4.21 78.8283 4.16 78.4083 4.16C78.1183 4.16 77.8383 4.185 77.5683 4.235C77.2983 4.285 77.0583 4.37 76.8483 4.49C76.6383 4.6 76.4683 4.74 76.3383 4.91C76.2183 5.08 76.1633 5.285 76.1733 5.525C76.1833 5.775 76.2583 5.98 76.3983 6.14C76.5483 6.29 76.7333 6.415 76.9533 6.515C77.1833 6.605 77.4283 6.68 77.6883 6.74C77.9483 6.79 78.1933 6.835 78.4233 6.875C78.7533 6.935 79.0983 7 79.4583 7.07C79.8283 7.14 80.1633 7.25 80.4633 7.4C80.7733 7.55 81.0233 7.755 81.2133 8.015C81.4133 8.275 81.5033 8.62 81.4833 9.05C81.4733 9.46 81.3683 9.8 81.1683 10.07C80.9783 10.33 80.7333 10.54 80.4333 10.7C80.1333 10.86 79.8083 10.97 79.4583 11.03C79.1083 11.09 78.7683 11.12 78.4383 11.12C78.1083 11.12 77.7833 11.09 77.4633 11.03C77.1533 10.97 76.8533 10.88 76.5633 10.76C76.2833 10.63 76.0233 10.475 75.7833 10.295C75.5533 10.105 75.3583 9.885 75.1983 9.635L75.7383 9.155C76.0483 9.595 76.4533 9.915 76.9533 10.115C77.4533 10.315 77.9533 10.415 78.4533 10.415C78.6733 10.415 78.9133 10.4 79.1733 10.37C79.4433 10.33 79.6933 10.26 79.9233 10.16C80.1533 10.05 80.3483 9.905 80.5083 9.725C80.6683 9.535 80.7533 9.295 80.7633 9.005C80.7733 8.735 80.7083 8.52 80.5683 8.36C80.4283 8.19 80.2433 8.055 80.0133 7.955C79.7933 7.845 79.5333 7.76 79.2333 7.7C78.9433 7.64 78.6483 7.585 78.3483 7.535C77.9883 7.475 77.6333 7.41 77.2833 7.34C76.9433 7.26 76.6383 7.15 76.3683 7.01C76.0983 6.86 75.8783 6.67 75.7083 6.44C75.5483 6.21 75.4683 5.91 75.4683 5.54C75.4683 5.18 75.5483 4.87 75.7083 4.61C75.8783 4.34 76.0983 4.12 76.3683 3.95C76.6483 3.78 76.9633 3.66 77.3133 3.59C77.6633 3.51 78.0283 3.47 78.4083 3.47C78.9483 3.47 79.4483 3.55 79.9083 3.71C80.3783 3.86 80.7983 4.11 81.1683 4.46L80.7183 4.94ZM86.6129 11.12C86.0929 11.12 85.6029 11.03 85.1429 10.85C84.6829 10.67 84.2829 10.415 83.9429 10.085C83.6029 9.755 83.3329 9.355 83.1329 8.885C82.9429 8.415 82.8479 7.885 82.8479 7.295C82.8479 6.745 82.9429 6.235 83.1329 5.765C83.3329 5.295 83.6029 4.89 83.9429 4.55C84.2829 4.21 84.6829 3.945 85.1429 3.755C85.6029 3.565 86.0929 3.47 86.6129 3.47C87.1329 3.47 87.6279 3.555 88.0979 3.725C88.5779 3.885 88.9879 4.135 89.3279 4.475C89.6779 4.815 89.9379 5.25 90.1079 5.78C90.2879 6.3 90.3429 6.92 90.2729 7.64H83.5979C83.6379 8.08 83.7429 8.47 83.9129 8.81C84.0929 9.15 84.3179 9.44 84.5879 9.68C84.8579 9.91 85.1679 10.09 85.5179 10.22C85.8679 10.34 86.2329 10.4 86.6129 10.4C86.8529 10.4 87.1029 10.375 87.3629 10.325C87.6229 10.275 87.8679 10.205 88.0979 10.115C88.3379 10.015 88.5579 9.895 88.7579 9.755C88.9679 9.615 89.1429 9.455 89.2829 9.275L89.8079 9.695C89.6279 9.935 89.4129 10.145 89.1629 10.325C88.9229 10.495 88.6629 10.64 88.3829 10.76C88.1029 10.88 87.8129 10.97 87.5129 11.03C87.2129 11.09 86.9129 11.12 86.6129 11.12ZM89.6129 6.995C89.6029 6.075 89.3229 5.37 88.7729 4.88C88.2329 4.39 87.5129 4.145 86.6129 4.145C86.2329 4.145 85.8679 4.21 85.5179 4.34C85.1679 4.46 84.8579 4.645 84.5879 4.895C84.3179 5.135 84.0929 5.435 83.9129 5.795C83.7429 6.145 83.6379 6.545 83.5979 6.995H89.6129Z" fill="#2A2A2A"/>
<path d="M8.6865 25.596H11.5215C11.7285 25.596 11.949 25.578 12.183 25.542C12.417 25.497 12.633 25.425 12.831 25.326C13.029 25.227 13.191 25.0965 13.317 24.9345C13.452 24.7635 13.5195 24.5475 13.5195 24.2865C13.5195 24.0345 13.4565 23.8185 13.3305 23.6385C13.2045 23.4495 13.0425 23.2965 12.8445 23.1795C12.6555 23.0535 12.444 22.9635 12.21 22.9095C11.976 22.8465 11.751 22.815 11.535 22.815H8.6865V25.596ZM8.6865 21.465H11.535C12.102 21.465 12.525 21.3615 12.804 21.1545C13.092 20.9475 13.236 20.655 13.236 20.277C13.236 20.115 13.2 19.953 13.128 19.791C13.056 19.62 12.948 19.4715 12.804 19.3455C12.66 19.2195 12.48 19.116 12.264 19.035C12.048 18.954 11.8005 18.9135 11.5215 18.9135H8.6865V21.465ZM11.5215 17.55C11.9715 17.55 12.39 17.604 12.777 17.712C13.173 17.811 13.515 17.973 13.803 18.198C14.091 18.414 14.316 18.693 14.478 19.035C14.649 19.377 14.7345 19.782 14.7345 20.25C14.7345 20.655 14.6265 21.024 14.4105 21.357C14.2035 21.69 13.875 21.9465 13.425 22.1265C13.704 22.2075 13.947 22.3335 14.154 22.5045C14.361 22.6755 14.5275 22.8645 14.6535 23.0715C14.7795 23.2785 14.874 23.49 14.937 23.706C15 23.922 15.0315 24.12 15.0315 24.3C15.0315 24.813 14.937 25.245 14.748 25.596C14.559 25.938 14.3025 26.217 13.9785 26.433C13.6545 26.64 13.281 26.7885 12.858 26.8785C12.435 26.9595 11.9895 27 11.5215 27H7.188V17.55H11.5215ZM23.8311 27H16.8516V17.55H23.7906V19.0215H18.3636V21.573H23.5746V22.977H18.3636V25.515H23.8311V27ZM34.9117 20.3445L30.7132 30.0915H29.1742L30.5512 26.9055L27.8917 20.3445H29.5117L30.6592 23.49L31.3207 25.38L32.0362 23.517L33.3592 20.3445H34.9117ZM38.8144 20.2095C39.3274 20.2095 39.7954 20.2995 40.2184 20.4795C40.6414 20.6595 41.0059 20.907 41.3119 21.222C41.6179 21.528 41.8519 21.8925 42.0139 22.3155C42.1849 22.7385 42.2704 23.193 42.2704 23.679C42.2704 24.174 42.1894 24.633 42.0274 25.056C41.8654 25.47 41.6314 25.8345 41.3254 26.1495C41.0284 26.4555 40.6639 26.6985 40.2319 26.8785C39.8089 27.0495 39.3364 27.135 38.8144 27.135C38.2924 27.135 37.8199 27.0495 37.3969 26.8785C36.9739 26.6985 36.6139 26.4555 36.3169 26.1495C36.0199 25.8345 35.7904 25.47 35.6284 25.056C35.4664 24.633 35.3854 24.174 35.3854 23.679C35.3854 23.193 35.4664 22.7385 35.6284 22.3155C35.7904 21.8925 36.0199 21.528 36.3169 21.222C36.6229 20.907 36.9874 20.6595 37.4104 20.4795C37.8334 20.2995 38.3014 20.2095 38.8144 20.2095ZM38.8144 21.492C38.4994 21.492 38.2159 21.5505 37.9639 21.6675C37.7119 21.7845 37.4959 21.9465 37.3159 22.1535C37.1449 22.3515 37.0099 22.581 36.9109 22.842C36.8209 23.103 36.7759 23.382 36.7759 23.679C36.7759 23.976 36.8209 24.255 36.9109 24.516C37.0099 24.777 37.1449 25.0065 37.3159 25.2045C37.4959 25.4025 37.7119 25.56 37.9639 25.677C38.2159 25.785 38.4994 25.839 38.8144 25.839C39.1384 25.839 39.4264 25.785 39.6784 25.677C39.9304 25.56 40.1419 25.4025 40.3129 25.2045C40.4929 25.0065 40.6279 24.777 40.7179 24.516C40.8169 24.255 40.8664 23.976 40.8664 23.679C40.8664 23.382 40.8169 23.103 40.7179 22.842C40.6189 22.581 40.4794 22.3515 40.2994 22.1535C40.1194 21.9465 39.9034 21.7845 39.6514 21.6675C39.3994 21.5505 39.1204 21.492 38.8144 21.492ZM45.0229 20.3445V23.9085C45.0229 24.4755 45.1759 24.939 45.4819 25.299C45.7969 25.65 46.2469 25.8255 46.8319 25.8255C47.1019 25.8255 47.3494 25.776 47.5744 25.677C47.8084 25.569 48.0064 25.425 48.1684 25.245C48.3304 25.056 48.4564 24.84 48.5464 24.597C48.6364 24.354 48.6814 24.093 48.6814 23.814V20.3445H50.0719V27.0135H48.8164L48.7354 26.028C48.4114 26.406 48.0649 26.6805 47.6959 26.8515C47.3269 27.0225 46.9084 27.108 46.4404 27.108C46.0354 27.108 45.6574 27.036 45.3064 26.892C44.9644 26.748 44.6674 26.541 44.4154 26.271C44.1724 26.001 43.9789 25.668 43.8349 25.272C43.6999 24.876 43.6324 24.426 43.6324 23.922V20.3445H45.0229ZM53.263 20.3445L53.3575 21.222C53.6005 20.799 53.8975 20.5245 54.2485 20.3985C54.5995 20.2635 54.955 20.196 55.315 20.196C55.639 20.196 55.945 20.25 56.233 20.358C56.53 20.457 56.773 20.592 56.962 20.763L56.3275 21.978C56.1565 21.843 55.981 21.744 55.801 21.681C55.63 21.609 55.414 21.573 55.153 21.573C54.91 21.573 54.6805 21.6135 54.4645 21.6945C54.2485 21.7665 54.0595 21.879 53.8975 22.032C53.7355 22.176 53.605 22.365 53.506 22.599C53.407 22.824 53.3575 23.0895 53.3575 23.3955V27H51.967V20.3445H53.263ZM68.1675 27H61.188V17.55H68.127V19.0215H62.7V21.573H67.911V22.977H62.7V25.515H68.1675V27ZM76.0314 20.3445L71.8329 30.0915H70.2939L71.6709 26.9055L69.0114 20.3445H70.6314L71.7789 23.49L72.4404 25.38L73.1559 23.517L74.4789 20.3445H76.0314ZM77.963 24.192C78.026 24.705 78.251 25.1145 78.638 25.4205C79.025 25.7175 79.5245 25.866 80.1365 25.866C80.4785 25.866 80.834 25.8075 81.203 25.6905C81.572 25.5645 81.86 25.3845 82.067 25.1505L82.9715 26.028C82.8005 26.217 82.6025 26.3835 82.3775 26.5275C82.1525 26.6715 81.914 26.793 81.662 26.892C81.419 26.982 81.1625 27.0495 80.8925 27.0945C80.6225 27.1395 80.3615 27.162 80.1095 27.162C79.5605 27.162 79.0655 27.081 78.6245 26.919C78.1835 26.748 77.8055 26.5095 77.4905 26.2035C77.1845 25.8975 76.946 25.5285 76.775 25.0965C76.604 24.6555 76.5185 24.1695 76.5185 23.6385C76.5185 23.1345 76.604 22.671 76.775 22.248C76.946 21.816 77.1845 21.447 77.4905 21.141C77.7965 20.835 78.161 20.5965 78.584 20.4255C79.016 20.2545 79.493 20.169 80.015 20.169C80.555 20.169 81.041 20.2545 81.473 20.4255C81.914 20.5875 82.283 20.835 82.58 21.168C82.886 21.501 83.1065 21.9195 83.2415 22.4235C83.3855 22.9275 83.426 23.517 83.363 24.192H77.963ZM82.0265 23.0175C81.9815 22.4865 81.7835 22.086 81.4325 21.816C81.0815 21.546 80.6225 21.411 80.0555 21.411C79.5425 21.411 79.097 21.546 78.719 21.816C78.341 22.086 78.098 22.4865 77.99 23.0175H82.0265ZM89.0334 21.978C88.7724 21.735 88.4979 21.573 88.2099 21.492C87.9219 21.402 87.6114 21.357 87.2784 21.357C86.8464 21.348 86.4999 21.4155 86.2389 21.5595C85.9869 21.6945 85.8609 21.8925 85.8609 22.1535C85.8699 22.4325 86.0049 22.635 86.2659 22.761C86.5269 22.878 86.8734 22.959 87.3054 23.004C87.6114 23.031 87.9309 23.076 88.2639 23.139C88.5969 23.193 88.9029 23.2965 89.1819 23.4495C89.4609 23.5935 89.6859 23.796 89.8569 24.057C90.0369 24.318 90.1269 24.6645 90.1269 25.0965C90.1269 25.4115 90.0594 25.6995 89.9244 25.9605C89.7894 26.2125 89.5959 26.433 89.3439 26.622C89.1009 26.802 88.8039 26.9415 88.4529 27.0405C88.1109 27.1485 87.7239 27.2025 87.2919 27.2025C86.7519 27.2025 86.2209 27.1215 85.6989 26.9595C85.1769 26.7975 84.6954 26.469 84.2544 25.974L84.9834 24.9885C85.2984 25.3305 85.6674 25.578 86.0904 25.731C86.5134 25.884 86.9229 25.965 87.3189 25.974C87.4809 25.974 87.6429 25.9605 87.8049 25.9335C87.9759 25.8975 88.1289 25.848 88.2639 25.785C88.3989 25.713 88.5114 25.623 88.6014 25.515C88.6914 25.398 88.7364 25.263 88.7364 25.11C88.7454 24.813 88.6149 24.597 88.3449 24.462C88.0749 24.327 87.6924 24.237 87.1974 24.192C86.8824 24.165 86.5629 24.1155 86.2389 24.0435C85.9239 23.9625 85.6359 23.85 85.3749 23.706C85.1139 23.553 84.8979 23.355 84.7269 23.112C84.5649 22.869 84.4839 22.563 84.4839 22.194C84.4839 21.825 84.5694 21.5145 84.7404 21.2625C84.9114 21.0015 85.1319 20.79 85.4019 20.628C85.6719 20.466 85.9689 20.349 86.2929 20.277C86.6169 20.205 86.9364 20.169 87.2514 20.169C87.7644 20.169 88.2234 20.2365 88.6284 20.3715C89.0424 20.4975 89.4384 20.727 89.8164 21.06L89.0334 21.978Z" fill="#2A2A2A"/>
<path d="M2 0H0V27H2V0Z" fill="#2A2A2A"/>
</svg>
